<mxfile host="app.diagrams.net" modified="2023-05-26T16:36:22.293Z" agent="Mozilla/5.0 (Windows NT 10.0; Win64; x64) AppleWebKit/537.36 (KHTML, like Gecko) Chrome/113.0.0.0 Safari/537.36" etag="iFb_b6PlXIcDyA7CPUbL" version="21.2.4" type="device">
  <diagram name="Page-1" id="qS4x5nyl4BPPRKi_G5hH">
    <mxGraphModel dx="1500" dy="747" grid="1" gridSize="10" guides="1" tooltips="1" connect="1" arrows="1" fold="1" page="1" pageScale="1" pageWidth="850" pageHeight="1100" math="0" shadow="0">
      <root>
        <mxCell id="0" />
        <mxCell id="1" parent="0" />
        <mxCell id="3B5caqHohGgjosx-iixr-5" value="" style="whiteSpace=wrap;html=1;aspect=fixed;" parent="1" vertex="1">
          <mxGeometry x="140" y="190" width="640" height="640" as="geometry" />
        </mxCell>
        <mxCell id="3B5caqHohGgjosx-iixr-6" value="Neprijavljen &lt;br&gt;uporabnik" style="shape=umlActor;verticalLabelPosition=bottom;verticalAlign=top;html=1;outlineConnect=0;" parent="1" vertex="1">
          <mxGeometry x="50" y="250" width="30" height="60" as="geometry" />
        </mxCell>
        <mxCell id="3B5caqHohGgjosx-iixr-7" value="Prijavljen &lt;br&gt;uporabnik" style="shape=umlActor;verticalLabelPosition=bottom;verticalAlign=top;html=1;outlineConnect=0;" parent="1" vertex="1">
          <mxGeometry x="50" y="610" width="30" height="60" as="geometry" />
        </mxCell>
        <mxCell id="3B5caqHohGgjosx-iixr-9" value="Google API" style="icon;html=1;image=img/clipart/Gear_128x128.png" parent="1" vertex="1">
          <mxGeometry x="810" y="350" width="60" height="60" as="geometry" />
        </mxCell>
        <mxCell id="3B5caqHohGgjosx-iixr-10" value="Zaledni sistem" style="icon;html=1;image=img/clipart/Gear_128x128.png" parent="1" vertex="1">
          <mxGeometry x="810" y="570" width="60" height="60" as="geometry" />
        </mxCell>
        <mxCell id="3B5caqHohGgjosx-iixr-13" value="" style="endArrow=block;endFill=0;endSize=12;html=1;rounded=0;exitX=0;exitY=0.3333333333333333;exitDx=0;exitDy=0;exitPerimeter=0;" parent="1" source="3B5caqHohGgjosx-iixr-7" target="3B5caqHohGgjosx-iixr-6" edge="1">
          <mxGeometry width="160" relative="1" as="geometry">
            <mxPoint x="280" y="450" as="sourcePoint" />
            <mxPoint x="65" y="330" as="targetPoint" />
            <Array as="points">
              <mxPoint x="20" y="630" />
              <mxPoint x="20" y="280" />
            </Array>
          </mxGeometry>
        </mxCell>
        <mxCell id="3B5caqHohGgjosx-iixr-14" value="Zajem fotografije rastline" style="ellipse;whiteSpace=wrap;html=1;" parent="1" vertex="1">
          <mxGeometry x="180" y="300" width="120" height="50" as="geometry" />
        </mxCell>
        <mxCell id="3B5caqHohGgjosx-iixr-15" value="Prejem rezultatov klasifikacije" style="ellipse;whiteSpace=wrap;html=1;" parent="1" vertex="1">
          <mxGeometry x="350" y="300" width="120" height="50" as="geometry" />
        </mxCell>
        <mxCell id="3B5caqHohGgjosx-iixr-16" value="Extends" style="endArrow=openThin;endSize=16;endFill=0;html=1;rounded=0;exitX=0;exitY=0.5;exitDx=0;exitDy=0;entryX=1;entryY=0.5;entryDx=0;entryDy=0;jumpSize=3;" parent="1" source="3B5caqHohGgjosx-iixr-15" target="3B5caqHohGgjosx-iixr-14" edge="1">
          <mxGeometry x="-0.3333" y="-15" width="160" relative="1" as="geometry">
            <mxPoint x="290" y="440" as="sourcePoint" />
            <mxPoint x="450" y="440" as="targetPoint" />
            <Array as="points" />
            <mxPoint as="offset" />
          </mxGeometry>
        </mxCell>
        <mxCell id="3B5caqHohGgjosx-iixr-17" value="" style="endArrow=none;html=1;rounded=0;exitX=1;exitY=0.3333333333333333;exitDx=0;exitDy=0;exitPerimeter=0;entryX=0;entryY=0.5;entryDx=0;entryDy=0;" parent="1" source="3B5caqHohGgjosx-iixr-6" target="3B5caqHohGgjosx-iixr-14" edge="1">
          <mxGeometry width="50" height="50" relative="1" as="geometry">
            <mxPoint x="80" y="460" as="sourcePoint" />
            <mxPoint x="130" y="410" as="targetPoint" />
          </mxGeometry>
        </mxCell>
        <mxCell id="3B5caqHohGgjosx-iixr-18" value="Prejem predlogov za skrb za rastlino na podlagi vrste" style="ellipse;whiteSpace=wrap;html=1;" parent="1" vertex="1">
          <mxGeometry x="510" y="340" width="150" height="60" as="geometry" />
        </mxCell>
        <mxCell id="3B5caqHohGgjosx-iixr-19" value="Include" style="endArrow=openThin;endSize=16;endFill=0;html=1;rounded=0;exitX=0;exitY=0;exitDx=0;exitDy=0;entryX=1;entryY=0.5;entryDx=0;entryDy=0;jumpSize=3;" parent="1" source="3B5caqHohGgjosx-iixr-18" target="3B5caqHohGgjosx-iixr-15" edge="1">
          <mxGeometry x="-0.2" y="-15" width="160" relative="1" as="geometry">
            <mxPoint x="330" y="340" as="sourcePoint" />
            <mxPoint x="270" y="340" as="targetPoint" />
            <Array as="points" />
            <mxPoint as="offset" />
          </mxGeometry>
        </mxCell>
        <mxCell id="3B5caqHohGgjosx-iixr-20" value="Pregled Å¾e klasificiranih rastlin in njihovih predlogov" style="ellipse;whiteSpace=wrap;html=1;" parent="1" vertex="1">
          <mxGeometry x="260" y="600" width="120" height="60" as="geometry" />
        </mxCell>
        <mxCell id="3B5caqHohGgjosx-iixr-21" value="Pregled vrst rastlin" style="ellipse;whiteSpace=wrap;html=1;" parent="1" vertex="1">
          <mxGeometry x="180" y="360" width="120" height="50" as="geometry" />
        </mxCell>
        <mxCell id="3B5caqHohGgjosx-iixr-22" value="Pregled podrobnosti posamezne rastline" style="ellipse;whiteSpace=wrap;html=1;" parent="1" vertex="1">
          <mxGeometry x="310" y="415" width="120" height="50" as="geometry" />
        </mxCell>
        <mxCell id="3B5caqHohGgjosx-iixr-23" value="Extends" style="endArrow=openThin;endSize=16;endFill=0;html=1;rounded=0;exitX=0;exitY=0;exitDx=0;exitDy=0;entryX=1;entryY=1;entryDx=0;entryDy=0;jumpSize=3;" parent="1" source="3B5caqHohGgjosx-iixr-22" target="3B5caqHohGgjosx-iixr-21" edge="1">
          <mxGeometry x="-0.6382" y="-20" width="160" relative="1" as="geometry">
            <mxPoint x="370" y="265" as="sourcePoint" />
            <mxPoint x="310" y="265" as="targetPoint" />
            <Array as="points" />
            <mxPoint as="offset" />
          </mxGeometry>
        </mxCell>
        <mxCell id="3B5caqHohGgjosx-iixr-24" value="Iskanje vrst rastlin" style="ellipse;whiteSpace=wrap;html=1;" parent="1" vertex="1">
          <mxGeometry x="290" y="470" width="120" height="40" as="geometry" />
        </mxCell>
        <mxCell id="3B5caqHohGgjosx-iixr-26" value="Filtriranje vrst rastlin" style="ellipse;whiteSpace=wrap;html=1;" parent="1" vertex="1">
          <mxGeometry x="160" y="470" width="120" height="40" as="geometry" />
        </mxCell>
        <mxCell id="3B5caqHohGgjosx-iixr-27" value="Extends" style="endArrow=openThin;endSize=16;endFill=0;html=1;rounded=0;entryX=0.667;entryY=1;entryDx=0;entryDy=0;jumpSize=3;entryPerimeter=0;exitX=0;exitY=0;exitDx=0;exitDy=0;" parent="1" source="3B5caqHohGgjosx-iixr-24" target="3B5caqHohGgjosx-iixr-21" edge="1">
          <mxGeometry x="-0.0863" y="7" width="160" relative="1" as="geometry">
            <mxPoint x="340" y="432" as="sourcePoint" />
            <mxPoint x="292" y="413" as="targetPoint" />
            <Array as="points" />
            <mxPoint as="offset" />
          </mxGeometry>
        </mxCell>
        <mxCell id="3B5caqHohGgjosx-iixr-28" value="Extends" style="endArrow=openThin;endSize=16;endFill=0;html=1;rounded=0;exitX=0.5;exitY=0;exitDx=0;exitDy=0;entryX=0.5;entryY=1;entryDx=0;entryDy=0;jumpSize=3;" parent="1" source="3B5caqHohGgjosx-iixr-26" target="3B5caqHohGgjosx-iixr-21" edge="1">
          <mxGeometry x="-0.5" y="16" width="160" relative="1" as="geometry">
            <mxPoint x="348" y="442" as="sourcePoint" />
            <mxPoint x="302" y="423" as="targetPoint" />
            <Array as="points" />
            <mxPoint as="offset" />
          </mxGeometry>
        </mxCell>
        <mxCell id="3B5caqHohGgjosx-iixr-29" value="Ogled virtualnega vrta" style="ellipse;whiteSpace=wrap;html=1;" parent="1" vertex="1">
          <mxGeometry x="200" y="670" width="120" height="50" as="geometry" />
        </mxCell>
        <mxCell id="3B5caqHohGgjosx-iixr-30" value="Dodajanje rastlin" style="ellipse;whiteSpace=wrap;html=1;" parent="1" vertex="1">
          <mxGeometry x="530" y="745" width="120" height="50" as="geometry" />
        </mxCell>
        <mxCell id="3B5caqHohGgjosx-iixr-31" value="Odstranjevanje rastlin" style="ellipse;whiteSpace=wrap;html=1;" parent="1" vertex="1">
          <mxGeometry x="350" y="755" width="120" height="40" as="geometry" />
        </mxCell>
        <mxCell id="3B5caqHohGgjosx-iixr-32" value="Urejanje podatkov rastline" style="ellipse;whiteSpace=wrap;html=1;" parent="1" vertex="1">
          <mxGeometry x="210" y="750" width="120" height="50" as="geometry" />
        </mxCell>
        <mxCell id="3B5caqHohGgjosx-iixr-33" value="Vklop in izklop opomnikov za zalivanje" style="ellipse;whiteSpace=wrap;html=1;" parent="1" vertex="1">
          <mxGeometry x="200" y="530" width="120" height="60" as="geometry" />
        </mxCell>
        <mxCell id="3B5caqHohGgjosx-iixr-34" value="" style="endArrow=none;html=1;rounded=0;exitX=1;exitY=0.3333333333333333;exitDx=0;exitDy=0;exitPerimeter=0;entryX=0;entryY=0.5;entryDx=0;entryDy=0;" parent="1" source="3B5caqHohGgjosx-iixr-7" target="3B5caqHohGgjosx-iixr-33" edge="1">
          <mxGeometry width="50" height="50" relative="1" as="geometry">
            <mxPoint x="90" y="560" as="sourcePoint" />
            <mxPoint x="380" y="460" as="targetPoint" />
          </mxGeometry>
        </mxCell>
        <mxCell id="3B5caqHohGgjosx-iixr-35" value="" style="endArrow=none;html=1;rounded=0;exitX=1;exitY=0.3333333333333333;exitDx=0;exitDy=0;exitPerimeter=0;entryX=0;entryY=0.5;entryDx=0;entryDy=0;" parent="1" source="3B5caqHohGgjosx-iixr-7" target="3B5caqHohGgjosx-iixr-20" edge="1">
          <mxGeometry width="50" height="50" relative="1" as="geometry">
            <mxPoint x="90" y="560" as="sourcePoint" />
            <mxPoint x="210" y="570" as="targetPoint" />
          </mxGeometry>
        </mxCell>
        <mxCell id="3B5caqHohGgjosx-iixr-37" value="" style="endArrow=none;html=1;rounded=0;exitX=1;exitY=0.3333333333333333;exitDx=0;exitDy=0;exitPerimeter=0;entryX=0;entryY=0.5;entryDx=0;entryDy=0;" parent="1" source="3B5caqHohGgjosx-iixr-7" target="3B5caqHohGgjosx-iixr-29" edge="1">
          <mxGeometry width="50" height="50" relative="1" as="geometry">
            <mxPoint x="90" y="560" as="sourcePoint" />
            <mxPoint x="270" y="640" as="targetPoint" />
          </mxGeometry>
        </mxCell>
        <mxCell id="3B5caqHohGgjosx-iixr-38" value="Extends" style="endArrow=openThin;endSize=16;endFill=0;html=1;rounded=0;jumpSize=3;exitX=0;exitY=0.5;exitDx=0;exitDy=0;entryX=1;entryY=0.5;entryDx=0;entryDy=0;" parent="1" source="3B5caqHohGgjosx-iixr-30" target="3B5caqHohGgjosx-iixr-29" edge="1">
          <mxGeometry x="-0.4862" y="-6" width="160" relative="1" as="geometry">
            <mxPoint x="318" y="486" as="sourcePoint" />
            <mxPoint x="270" y="420" as="targetPoint" />
            <Array as="points" />
            <mxPoint as="offset" />
          </mxGeometry>
        </mxCell>
        <mxCell id="3B5caqHohGgjosx-iixr-39" value="Extends" style="endArrow=openThin;endSize=16;endFill=0;html=1;rounded=0;entryX=1;entryY=1;entryDx=0;entryDy=0;jumpSize=3;exitX=0;exitY=0;exitDx=0;exitDy=0;" parent="1" source="3B5caqHohGgjosx-iixr-31" target="3B5caqHohGgjosx-iixr-29" edge="1">
          <mxGeometry x="-0.0863" y="7" width="160" relative="1" as="geometry">
            <mxPoint x="328" y="496" as="sourcePoint" />
            <mxPoint x="280" y="430" as="targetPoint" />
            <Array as="points" />
            <mxPoint as="offset" />
          </mxGeometry>
        </mxCell>
        <mxCell id="3B5caqHohGgjosx-iixr-40" value="Extends" style="endArrow=openThin;endSize=16;endFill=0;html=1;rounded=0;entryX=0.5;entryY=1;entryDx=0;entryDy=0;jumpSize=3;exitX=0.5;exitY=0;exitDx=0;exitDy=0;" parent="1" source="3B5caqHohGgjosx-iixr-32" target="3B5caqHohGgjosx-iixr-29" edge="1">
          <mxGeometry x="-0.0863" y="7" width="160" relative="1" as="geometry">
            <mxPoint x="338" y="506" as="sourcePoint" />
            <mxPoint x="290" y="440" as="targetPoint" />
            <Array as="points" />
            <mxPoint as="offset" />
          </mxGeometry>
        </mxCell>
        <mxCell id="3B5caqHohGgjosx-iixr-41" value="Prijava z Google-ovim raÄunom" style="ellipse;whiteSpace=wrap;html=1;" parent="1" vertex="1">
          <mxGeometry x="250" y="210" width="140" height="60" as="geometry" />
        </mxCell>
        <mxCell id="3B5caqHohGgjosx-iixr-43" value="" style="endArrow=none;html=1;rounded=0;exitX=1;exitY=0.3333333333333333;exitDx=0;exitDy=0;exitPerimeter=0;entryX=0;entryY=0.5;entryDx=0;entryDy=0;" parent="1" source="3B5caqHohGgjosx-iixr-6" target="3B5caqHohGgjosx-iixr-41" edge="1">
          <mxGeometry width="50" height="50" relative="1" as="geometry">
            <mxPoint x="690" y="500" as="sourcePoint" />
            <mxPoint x="740" y="450" as="targetPoint" />
          </mxGeometry>
        </mxCell>
        <mxCell id="3B5caqHohGgjosx-iixr-44" value="BotaniAI" style="text;html=1;strokeColor=none;fillColor=none;align=center;verticalAlign=middle;whiteSpace=wrap;rounded=0;" parent="1" vertex="1">
          <mxGeometry x="420" y="195" width="60" height="30" as="geometry" />
        </mxCell>
        <mxCell id="3B5caqHohGgjosx-iixr-45" value="" style="endArrow=none;html=1;rounded=0;exitX=1;exitY=0.3333333333333333;exitDx=0;exitDy=0;exitPerimeter=0;entryX=0;entryY=0;entryDx=0;entryDy=0;" parent="1" source="3B5caqHohGgjosx-iixr-6" target="3B5caqHohGgjosx-iixr-21" edge="1">
          <mxGeometry width="50" height="50" relative="1" as="geometry">
            <mxPoint x="690" y="470" as="sourcePoint" />
            <mxPoint x="740" y="420" as="targetPoint" />
          </mxGeometry>
        </mxCell>
        <mxCell id="3B5caqHohGgjosx-iixr-46" value="" style="endArrow=none;html=1;rounded=0;exitX=1;exitY=0.5;exitDx=0;exitDy=0;entryX=0;entryY=0.5;entryDx=0;entryDy=0;" parent="1" source="3B5caqHohGgjosx-iixr-41" target="3B5caqHohGgjosx-iixr-9" edge="1">
          <mxGeometry width="50" height="50" relative="1" as="geometry">
            <mxPoint x="690" y="470" as="sourcePoint" />
            <mxPoint x="740" y="420" as="targetPoint" />
            <Array as="points">
              <mxPoint x="640" y="260" />
            </Array>
          </mxGeometry>
        </mxCell>
        <mxCell id="3B5caqHohGgjosx-iixr-47" value="" style="endArrow=none;html=1;rounded=0;exitX=1;exitY=0.5;exitDx=0;exitDy=0;entryX=0;entryY=0.5;entryDx=0;entryDy=0;" parent="1" source="3B5caqHohGgjosx-iixr-21" target="3B5caqHohGgjosx-iixr-10" edge="1">
          <mxGeometry width="50" height="50" relative="1" as="geometry">
            <mxPoint x="690" y="470" as="sourcePoint" />
            <mxPoint x="740" y="420" as="targetPoint" />
            <Array as="points">
              <mxPoint x="660" y="450" />
            </Array>
          </mxGeometry>
        </mxCell>
        <mxCell id="3B5caqHohGgjosx-iixr-48" value="" style="endArrow=none;html=1;rounded=0;exitX=1;exitY=0.5;exitDx=0;exitDy=0;entryX=0;entryY=0.5;entryDx=0;entryDy=0;" parent="1" source="3B5caqHohGgjosx-iixr-22" target="3B5caqHohGgjosx-iixr-10" edge="1">
          <mxGeometry width="50" height="50" relative="1" as="geometry">
            <mxPoint x="690" y="470" as="sourcePoint" />
            <mxPoint x="770" y="600" as="targetPoint" />
          </mxGeometry>
        </mxCell>
        <mxCell id="3B5caqHohGgjosx-iixr-49" value="" style="endArrow=none;html=1;rounded=0;exitX=1;exitY=0.5;exitDx=0;exitDy=0;entryX=0;entryY=0.5;entryDx=0;entryDy=0;" parent="1" source="3B5caqHohGgjosx-iixr-24" target="3B5caqHohGgjosx-iixr-10" edge="1">
          <mxGeometry width="50" height="50" relative="1" as="geometry">
            <mxPoint x="690" y="470" as="sourcePoint" />
            <mxPoint x="740" y="420" as="targetPoint" />
          </mxGeometry>
        </mxCell>
        <mxCell id="3B5caqHohGgjosx-iixr-50" value="" style="endArrow=none;html=1;rounded=0;exitX=0;exitY=0.5;exitDx=0;exitDy=0;entryX=1;entryY=1;entryDx=0;entryDy=0;" parent="1" source="3B5caqHohGgjosx-iixr-10" target="3B5caqHohGgjosx-iixr-26" edge="1">
          <mxGeometry width="50" height="50" relative="1" as="geometry">
            <mxPoint x="690" y="470" as="sourcePoint" />
            <mxPoint x="740" y="420" as="targetPoint" />
          </mxGeometry>
        </mxCell>
        <mxCell id="3B5caqHohGgjosx-iixr-51" value="" style="endArrow=none;html=1;rounded=0;exitX=1;exitY=0.5;exitDx=0;exitDy=0;entryX=0;entryY=0.5;entryDx=0;entryDy=0;" parent="1" source="3B5caqHohGgjosx-iixr-33" target="3B5caqHohGgjosx-iixr-10" edge="1">
          <mxGeometry width="50" height="50" relative="1" as="geometry">
            <mxPoint x="690" y="570" as="sourcePoint" />
            <mxPoint x="740" y="520" as="targetPoint" />
          </mxGeometry>
        </mxCell>
        <mxCell id="3B5caqHohGgjosx-iixr-52" value="" style="endArrow=none;html=1;rounded=0;exitX=1;exitY=0.5;exitDx=0;exitDy=0;entryX=0;entryY=0.5;entryDx=0;entryDy=0;" parent="1" source="3B5caqHohGgjosx-iixr-20" target="3B5caqHohGgjosx-iixr-10" edge="1">
          <mxGeometry width="50" height="50" relative="1" as="geometry">
            <mxPoint x="690" y="570" as="sourcePoint" />
            <mxPoint x="740" y="520" as="targetPoint" />
          </mxGeometry>
        </mxCell>
        <mxCell id="3B5caqHohGgjosx-iixr-53" value="" style="endArrow=none;html=1;rounded=0;exitX=1;exitY=0.5;exitDx=0;exitDy=0;entryX=0;entryY=0.5;entryDx=0;entryDy=0;" parent="1" source="3B5caqHohGgjosx-iixr-30" target="3B5caqHohGgjosx-iixr-10" edge="1">
          <mxGeometry width="50" height="50" relative="1" as="geometry">
            <mxPoint x="690" y="570" as="sourcePoint" />
            <mxPoint x="740" y="520" as="targetPoint" />
          </mxGeometry>
        </mxCell>
        <mxCell id="3B5caqHohGgjosx-iixr-54" value="" style="endArrow=none;html=1;rounded=0;exitX=1;exitY=0;exitDx=0;exitDy=0;entryX=0;entryY=0.5;entryDx=0;entryDy=0;" parent="1" source="3B5caqHohGgjosx-iixr-29" target="3B5caqHohGgjosx-iixr-10" edge="1">
          <mxGeometry width="50" height="50" relative="1" as="geometry">
            <mxPoint x="690" y="570" as="sourcePoint" />
            <mxPoint x="740" y="520" as="targetPoint" />
          </mxGeometry>
        </mxCell>
        <mxCell id="3B5caqHohGgjosx-iixr-55" value="" style="endArrow=none;html=1;rounded=0;exitX=1;exitY=1;exitDx=0;exitDy=0;entryX=0;entryY=0.5;entryDx=0;entryDy=0;" parent="1" source="3B5caqHohGgjosx-iixr-31" target="3B5caqHohGgjosx-iixr-10" edge="1">
          <mxGeometry width="50" height="50" relative="1" as="geometry">
            <mxPoint x="690" y="570" as="sourcePoint" />
            <mxPoint x="740" y="520" as="targetPoint" />
            <Array as="points">
              <mxPoint x="540" y="800" />
              <mxPoint x="640" y="800" />
            </Array>
          </mxGeometry>
        </mxCell>
        <mxCell id="3B5caqHohGgjosx-iixr-56" value="" style="endArrow=none;html=1;rounded=0;exitX=0.5;exitY=1;exitDx=0;exitDy=0;entryX=0;entryY=0.5;entryDx=0;entryDy=0;" parent="1" source="3B5caqHohGgjosx-iixr-32" target="3B5caqHohGgjosx-iixr-10" edge="1">
          <mxGeometry width="50" height="50" relative="1" as="geometry">
            <mxPoint x="690" y="570" as="sourcePoint" />
            <mxPoint x="740" y="520" as="targetPoint" />
            <Array as="points">
              <mxPoint x="270" y="820" />
              <mxPoint x="690" y="820" />
            </Array>
          </mxGeometry>
        </mxCell>
        <mxCell id="jFiUhyQkEd5b463nvSLW-1" value="" style="endArrow=none;html=1;rounded=0;exitX=1;exitY=1;exitDx=0;exitDy=0;entryX=0;entryY=0.5;entryDx=0;entryDy=0;" edge="1" parent="1" source="3B5caqHohGgjosx-iixr-18" target="3B5caqHohGgjosx-iixr-10">
          <mxGeometry width="50" height="50" relative="1" as="geometry">
            <mxPoint x="480" y="340" as="sourcePoint" />
            <mxPoint x="820" y="390" as="targetPoint" />
          </mxGeometry>
        </mxCell>
      </root>
    </mxGraphModel>
  </diagram>
</mxfile>
